<?xml version="1.0" encoding="utf-8"?>
<!-- Generator: Adobe Illustrator 25.2.1, SVG Export Plug-In . SVG Version: 6.00 Build 0)  -->
<svg version="1.1" id="Camada_1" xmlns="http://www.w3.org/2000/svg" xmlns:xlink="http://www.w3.org/1999/xlink" x="0px" y="0px"
	 viewBox="0 0 1373 381.8" style="enable-background:new 0 0 1373 381.8;" xml:space="preserve">
<style type="text/css">
	.st0{fill:#F26340;}
</style>
<path class="st0" d="M1361.1,155.7c-2.9-17.7-44.6-9.3-35.5-29.3c0,0,2.7-4.5,2.7-4.5s-1.8-6-1.8-6c-1.2-10.6-12.8-10.4-21.4-14.4
	c-15.3,8-21.6,47.9-39,47c-7.7-7.5,32.6-41.6,16.3-64.7c-11.4-13.8,17.7-34.8,12.1-48.5c-26.7-40.7-73,62.5-85.8,71.4
	c-4.6,3.8-20.2,70.2-25.2,32.1c-0.9-5.6-2.2-11.1-2.7-12c-1.7-5-22,4.4-22.8-6.5c-0.7-2,24.5-53.6,19.5-52.8
	c-6-25-27.7-10.4-35.7,8.9c-17,33.7,4.5-19.2,7.2-28.1c0-1.3-12.9-8.3-15.5-8.3c-25.9,1.6-26.5,60.1-52.2,30
	c-28.8,29.9-4.6,18.1-39.2,12.3c-4.1-1.8-7.3,23.7-14.6,27.3c-12.2,2.5-13.2-1.8-5.5-15.1c16.7-27.4-15.7-11.7,3.9-39.8
	c33-77.4-63.4-1.1-73.8,26.8c-31.2,60-20.6,5.5-38.3,27.2c-10.6-21.5-23.5,14.3-35.1,31.4c-18.4,23.2-4.5-35.5,4.9-54.5
	c1.7-4.4,3.1-8.5,3.1-9.1c-3.2-0.5-23.1-21-29.8-16c-11.9,4.2-17.5,65.4-32,49c-6.8-7.3-13.9-1.5-21.2,2
	c-20.8-15.8-17.2,8.6-28.3,15.6c-11.5-2.5,1.1-31.6,2.5-41.4c-5.4-14.4-21.2-16.8-29.4-3.6c0.8-23.1-4.2-24.7-25.6-29.9
	c-2.7-4.4-4.7,26.7-6.8,27.6c-7.7-0.2-17.2-12-20.9,2.3c-9.1,19.6-17.1-18.5-25.5,17c-4.6,28.6-19.2,2.6-25.6,23.6
	c-1.5,4.1-3.2,7.3-3.8,7.1c-41-7.8,10-31.5-23-46.1c-14-16.4-21.1,13.7-30.4,17.4c-13.9-0.9-22.4-11.2-29.2,10
	c-6.8,19.2-10.3,12-24.5,5.3c-24.2-10-14-8.8-19.3-27c-0.5-0.4-30.7-9.3-29.6-6.1c-4.5,4.9-6.9,38.9-13.2,16.7
	c-9.1-12.3,10.9-32.3,14-44.9c-6.8-10.7-23.4-24.2-33.4-5c-29.1,33.7-60.3,81.2-72.7,115.4c-12.7,1.8-0.1-34-23.3-23.3
	c-5.6,1.9-7.4-2.4-9-5.7c-0.1-1.4,24.4-54.7,19.5-52.8c-5.5-25-28.1-10.4-35.7,8.9c-16.8,33.7,4.4-19.2,7.2-28.1
	c0-1.3-12.9-8.3-15.5-8.3c-20.4-1.6-28.6,52.4-44.9,35.6c-13.6-20.1-14.9,23.9-32.7,10.5c-24-24.1-15.2,37.6-39.9,21.4
	c4.6-11.7,19.4-29,1.8-37.1c12.7-17,28.8-64.1-7.5-45.7c-33,18-72.4,69.1-82.4,102.7c-0.8,0.5-13.3-1.9-8.8-6.7
	c3.9,0-11.6-21-12.6-20.7c-14.9,11-36.5,67-51.3,92.6c-3.8,15.2-19,71.4-15.6,70.4c10.9,5.1,21.1,26.4,27.3,10.5
	c16.5-18.9,12.1,19.3,38.6-38.3c15.9,12.1-5.2,45.5-11.5,70.4c40.3,39.6,39.2-7.9,53.7-37.6c5.3,2,15.3,13.1,22.4,5.9
	c6.3-6.3,15.8,1.9,20.9,3.1c26.6-50.4,19-3.2,11.8,19.4c5.9,14.6,20.8,16.8,29.4,3.6c-0.3,23.3,3.5,24.4,25.6,29.9
	c11.5-9.2-8-37.4,22.9-22.3c6.9-4.6,5-20.9,16.3-10.9c17.1,14,10-37.5,27.3-28.5c12.2,4.7,10.7-11.1,16.1-15.9
	c41.7,10.1-16.4,34.4,33.3,51.7c14.2-16.4,16.9-28,41-19c14.2-14.1,5.2-37.6,32.8-19.3c39.9,13.5-9.1,29.4,48.9,33.2
	c5.1-5.1,6.3-38.9,13.2-16.7c13.1,24.6-41.1,45.9,8.7,60.8c33.6-32.4,69.2-89.4,83.4-126.3c12.7-1.8,0.1,34,23.3,23.3
	c27.1,1.2-28.6,59.7-4.7,68.7c13.2,16.5,30.6-21.4,36.3-30.5c2,9.7-28.3,44.8,1.9,47.8c25.7-1.6,26.7-60.1,52.2-30
	c0.8,0,9.6-10.2,17-19.7c15.3,3.4,23.2,21,30.7-10.4c3.3-8.7,5.9-12.7,13.5-9.4c11.2-0.5-9.6,25.5-7.9,29c0.1,1.7,7.9,8.1,10.2,10.1
	c-3.5,6.7-15.9,30.3-16.2,33.5c6.7,58.3,97.9-57.6,100.2-76.2c24.2,23.5,12.8-6.3,27.3,13.1c7.6-1.3,28.7-49.2,34.7-45.6
	c8,16.6-7.7,43.8-14.9,69.1c1,0.5,24.6,21,29.8,16c7.2-5.6,20.5-44.6,23.9-53.6c4.2,1.3,16.3,13.4,22.4,5.9
	c3.3-3.2,9.9-3.2,13.4-0.1c11.8,12.7,14.8-18.7,21.8-18.8c17,6.9-17.4,46.8,8.4,52.4c9.9,6.5,12.4-3,18.5-7.4c1-0.2,0.5,22.9,2,21.7
	c11.5,1.3,29.7,21.5,27.8-7.6c-0.4-20.1,8.9-7.3,18.7-6.5c12.4-21.5,6.1-12,23.8-8.7c17.1-56.5,21-13.2,32.1-39.5
	c1.5-4.1,3.2-7.3,3.8-7.1c27.7,8.1,14.3,10.2,12,27.9c-6.8,10.9,14.4,20.3,21.3,23.8c0.9,0.4,18.9-24.3,20.1-23
	c25.2,8.3,24.8-0.8,36.2-24c8.5,4.3,26.5,13.1,35,17.5c-1.4,16.5-1.3,19.5,16.8,22.5c27.1,9.9,15.9-23.2,37-51
	C1330.9,214.2,1362.5,178.3,1361.1,155.7z"/>
</svg>
