<svg xmlns="http://www.w3.org/2000/svg" xmlns:xlink="http://www.w3.org/1999/xlink" viewBox="0 0 229.99 229.99"><defs><style>.cls-1{fill:url(#Gradiente_sem_nome_307);}.cls-2{fill:url(#Gradiente_sem_nome_305);}</style><linearGradient id="Gradiente_sem_nome_307" x1="32.91" y1="195.54" x2="229.22" y2="-0.77" gradientUnits="userSpaceOnUse"><stop offset="0" stop-color="#007adf"/><stop offset="1" stop-color="#00ecbc"/></linearGradient><linearGradient id="Gradiente_sem_nome_305" x1="156.62" y1="188.37" x2="226.7" y2="118.28" gradientUnits="userSpaceOnUse"><stop offset="0" stop-color="#00ecbc"/><stop offset="1" stop-color="#007adf"/></linearGradient></defs><g id="Camada_2" data-name="Camada 2"><g id="Camada_1-2" data-name="Camada 1"><path class="cls-1" d="M230,0a76.27,76.27,0,0,1-19.44,51c-1,1.1-2,2.17-3,3.21a76.39,76.39,0,0,1-54.21,22.45H115A38.34,38.34,0,1,0,153.33,115v38.33A76.41,76.41,0,0,0,179,210.55a115,115,0,1,1-25.66-204V0Z"/><path class="cls-2" d="M230,153.33V230a76.69,76.69,0,0,1-76.66-76.66V76.66A76.59,76.59,0,0,1,230,153.33Z"/></g></g></svg>