<svg xmlns="http://www.w3.org/2000/svg" xmlns:xlink="http://www.w3.org/1999/xlink" viewBox="0 0 1059.23 229.99"><defs><style>.cls-1{fill:#2b2b2b;}.cls-2{fill:url(#Gradiente_sem_nome_307);}.cls-3{fill:url(#Gradiente_sem_nome_305);}</style><linearGradient id="Gradiente_sem_nome_307" x1="32.91" y1="195.54" x2="229.22" y2="-0.77" gradientUnits="userSpaceOnUse"><stop offset="0" stop-color="#007adf"/><stop offset="1" stop-color="#00ecbc"/></linearGradient><linearGradient id="Gradiente_sem_nome_305" x1="156.62" y1="188.37" x2="226.7" y2="118.28" gradientUnits="userSpaceOnUse"><stop offset="0" stop-color="#00ecbc"/><stop offset="1" stop-color="#007adf"/></linearGradient></defs><g id="Camada_2" data-name="Camada 2"><g id="Camada_1-2" data-name="Camada 1"><path class="cls-1" d="M425.85,117.34v38.29c0,26-18.19,39.45-40.34,39.45V180.42c13.49,0,25.67-7.19,25.67-24.35V143.31a30,30,0,0,1-25.52,14.37,40.27,40.27,0,1,1,40.19-40.34Zm-14.67,0A25.6,25.6,0,1,0,385.66,143,25.54,25.54,0,0,0,411.18,117.34Z"/><path class="cls-1" d="M446.24,124.38V48.25H460.9v75.69c0,9.39,4,16.43,12,16.43v15C456.36,155.33,446.24,142.43,446.24,124.38Z"/><path class="cls-1" d="M565.93,115v40.33H551.26V115c0-14.82-9-23.33-22.59-23.33s-22.73,8.8-22.73,23.33v40.33H491.27V52.65h14.67v35.5C510.48,80.67,518.4,77,528.67,77,550.23,77,565.93,91.82,565.93,115Z"/><path class="cls-1" d="M590.57,78h14.08v9.39c4-7.34,15-10.27,25.38-9.39V92.85c-12.62-1.91-24.79,5.13-24.79,17.3v45.18H590.57Z"/><path class="cls-1" d="M645.28,107.66c0-17.75,11-31.39,29.19-31.39,9.69.15,17.61,4.69,21.86,11.3,4.4-6.75,12.32-11.3,22-11.3,18.19.15,29.19,13.64,29,31.39v47.67H732.71V107.66c0-9.09-5.43-16.72-14.38-16.72s-14.67,7.77-14.67,16.72v47.67H689V107.66c0-9.09-5.43-16.72-14.53-16.72-8.94,0-14.52,7.77-14.52,16.72v47.67H645.28Z"/><path class="cls-1" d="M765.42,148.15a7.26,7.26,0,1,1,7.19,7.18A7.24,7.24,0,0,1,765.42,148.15Z"/><path class="cls-1" d="M791.09,117.34a40.25,40.25,0,0,1,40.19-40.19A29.68,29.68,0,0,1,856.8,91.53V52.65h14.67v72.76c0,10.85,6,14.81,9.68,14.81v15.11c-7.18,0-15.25-2.2-18.92-14.81-6.3,10.56-17,17.16-31,17.16A40.38,40.38,0,0,1,791.09,117.34Zm65.71,0A25.52,25.52,0,1,0,831.28,143,25.54,25.54,0,0,0,856.8,117.34Z"/><path class="cls-1" d="M893.47,116c0-21.56,14.38-40.63,37.41-40.63,25.08.15,42.83,18.92,36.52,47.23H909.46c.88,11,11.44,21,24.79,21.13,6.16,0,18.19-3.09,21.27-8.22l11.3,8.65c-7.63,8.95-20.39,12.77-34.18,12.77C909,157,893.47,136.12,893.47,116ZM953,109.86c1.47-8.21-4.26-21.41-21.71-21.41a21.59,21.59,0,0,0-21.86,21.41Z"/><path class="cls-1" d="M1017.13,155.33,975,78H991.9l25.23,47.38L1042.21,78h17Z"/><path class="cls-2" d="M230,0a76.27,76.27,0,0,1-19.44,51c-1,1.1-2,2.17-3,3.21a76.39,76.39,0,0,1-54.21,22.45H115A38.34,38.34,0,1,0,153.33,115v38.33A76.41,76.41,0,0,0,179,210.55a115,115,0,1,1-25.66-204V0Z"/><path class="cls-3" d="M230,153.33V230a76.69,76.69,0,0,1-76.66-76.66V76.66A76.59,76.59,0,0,1,230,153.33Z"/></g></g></svg>